<svg xmlns="http://www.w3.org/2000/svg" width="780" height="1520" viewBox="0 0 390 760">
  <defs>
    <linearGradient id="shell" x1="0" x2="1" y1="0" y2="1"><stop stop-color="#111827"/><stop offset="1" stop-color="#050914"/></linearGradient>
    <radialGradient id="glow" cx="20%" cy="0%" r="70%"><stop stop-color="#6C5CFF" stop-opacity=".52"/><stop offset="1" stop-color="#6C5CFF" stop-opacity="0"/></radialGradient>
    <filter id="shadow" x="-30%" y="-30%" width="160%" height="160%"><feDropShadow dx="0" dy="26" stdDeviation="22" flood-color="#101426" flood-opacity=".28"/></filter>
  </defs>
  <rect width="390" height="760" rx="42" fill="url(#shell)" filter="url(#shadow)"/>
  <rect x="10" y="10" width="370" height="740" rx="33" fill="#07111F"/>
  <rect x="10" y="10" width="370" height="740" rx="33" fill="url(#glow)"/>
  <circle cx="330" cy="76" r="62" fill="#FFB020" fill-opacity=".12"/>
  <rect x="166" y="24" width="58" height="7" rx="4" fill="rgba(255,255,255,.18)"/>
  <circle cx="346" cy="58" r="22" fill="#6C5CFF" fill-opacity=".17"/>
  <text x="42" y="74" fill="rgba(255,255,255,.48)" font-family="Inter, Arial, sans-serif" font-size="12" font-weight="850" letter-spacing="1.2">MYFAMILY+</text>
  <text x="42" y="112" fill="#fff" font-family="Inter, Arial, sans-serif" font-size="32" font-weight="950">Premium</text>
  <text x="42" y="140" fill="rgba(255,255,255,.58)" font-family="Inter, Arial, sans-serif" font-size="14" font-weight="650">Le confort avancé du foyer.</text>
  <g font-family="Inter, Arial, sans-serif">
  <rect x="42" y="188" width="306" height="166" rx="34" fill="#6C5CFF"/>
  <circle cx="82" cy="234" r="23" fill="#FFB020" fill-opacity=".18"/><text x="82" y="242" fill="#FFB020" text-anchor="middle" font-size="24" font-weight="950">★</text>
  <text x="66" y="286" fill="#fff" font-size="28" font-weight="950">MyFamily+ Premium</text>
  <text x="66" y="318" fill="rgba(255,255,255,.72)" font-size="13" font-weight="700">Assistant, coffre-fort avancé et jeux privés.</text>
  <rect x="42" y="386" width="306" height="56" rx="24" fill="rgba(255,255,255,.07)"/><circle cx="72" cy="414" r="13" fill="#FFB020" fill-opacity=".17"/><text x="102" y="420" fill="rgba(255,255,255,.74)" font-size="14" font-weight="850">Assistant vocal familial</text><rect x="42" y="458" width="306" height="56" rx="24" fill="rgba(255,255,255,.07)"/><circle cx="72" cy="486" r="13" fill="#FFB020" fill-opacity=".17"/><text x="102" y="492" fill="rgba(255,255,255,.74)" font-size="14" font-weight="850">Liens de partage temporaires</text><rect x="42" y="530" width="306" height="56" rx="24" fill="rgba(255,255,255,.07)"/><circle cx="72" cy="558" r="13" fill="#FFB020" fill-opacity=".17"/><text x="102" y="564" fill="rgba(255,255,255,.74)" font-size="14" font-weight="850">Progression et statistiques</text><rect x="42" y="602" width="306" height="56" rx="24" fill="rgba(255,255,255,.07)"/><circle cx="72" cy="630" r="13" fill="#FFB020" fill-opacity=".17"/><text x="102" y="636" fill="rgba(255,255,255,.74)" font-size="14" font-weight="850">Packs de jeux complets</text>
  <rect x="42" y="682" width="306" height="52" rx="26" fill="#fff"/><text x="195" y="714" text-anchor="middle" fill="#101426" font-size="14" font-weight="950">DÉCOUVRIR PREMIUM</text>
</g>
</svg>